# xmcd
#
# Track frame offsets:
#	183
#	12108
#	25158
#	37770
#	45720
#	56833
#	69570
#	80383
#	91333
#	101158
#	111145
#	121583
#	135308
#	151658
#	162683
#	173120
#	183245
#	193670
#	205383
#	218733
#	230520
#
# Disc length: 3253 seconds
#
# Revision: 3
# Processed by: cddbd v1.5.2PL0 Copyright (c) Steve Scherf et al.
# Submitted via: audiograbber 1.83.01
#
DISCID=110cb315
DTITLE=Jerry Lee Lewis - The Mercury Sessions
DYEAR=1991
DGENRE=Rock/Country/Gospel
TTITLE0=I Can't Have A Merry Christmas Without You, Mary
TTITLE1=You Belong To Me
TTITLE2=My Blue Heaven
TTITLE3=Alvin
TTITLE4=Cheater Pretend (Linda Gail Lewis, duet vocal)
TTITLE5=Someday You'll Want Me To Want You
TTITLE6=I Don't Know Why, I Just Do
TTITLE7=Until The Day Forever Ends
TTITLE8=Honey Hush
TTITLE9=Nobody Knows Me
TTITLE10=The House Of Blue Lights
TTITLE11=Oh Lord. What's Left For Me to Do
TTITLE12=I Can Help (take 1)
TTITLE13=The Fifties
TTITLE14=The Last Letter
TTITLE15=Let's Live A Little, Before We Say Goodbye
TTITLE16=Sitting And Thinkin'
TTITLE17=Corrine, Corrina
TTITLE18=Life's Railway To Heaven
TTITLE19=You Call Everybody Darling
TTITLE20=You're All Too Ugly Tonight
EXTD=Polygram. CD 848 169-2. Unreleased Masters Collection. Recorded between 19
EXTD=68 and 1977. Produced in Netherland.\n
EXTT0=
EXTT1=
EXTT2=
EXTT3=
EXTT4=
EXTT5=
EXTT6=
EXTT7=
EXTT8=
EXTT9=
EXTT10=
EXTT11=
EXTT12=
EXTT13=
EXTT14=
EXTT15=
EXTT16=
EXTT17=
EXTT18=
EXTT19=
EXTT20=
PLAYORDER=
